<!DOCTYPE svg PUBLIC "-//W3C//DTD SVG 1.1//EN" "http://www.w3.org/Graphics/SVG/1.1/DTD/svg11.dtd">
<!-- Uploaded to: SVG Repo, www.svgrepo.com, Transformed by: SVG Repo Mixer Tools -->
<svg fill="#2ca9bc" width="800px" height="800px" viewBox="0 0 24 24" id="rainy" data-name="Flat Color" xmlns="http://www.w3.org/2000/svg" class="icon flat-color">
<g id="SVGRepo_bgCarrier" stroke-width="0"/>
<g id="SVGRepo_tracerCarrier" stroke-linecap="round" stroke-linejoin="round"/>
<g id="SVGRepo_iconCarrier">
<path id="secondary" d="M18,22a1,1,0,0,1-1-1V19a1,1,0,0,1,2,0v2A1,1,0,0,1,18,22Zm-8,0a1,1,0,0,1-1-1V19a1,1,0,0,1,2,0v2A1,1,0,0,1,10,22Zm4-1a1,1,0,0,1-1-1V19a1,1,0,0,1,2,0v1A1,1,0,0,1,14,21ZM6,21a1,1,0,0,1-1-1V19a1,1,0,0,1,2,0v1A1,1,0,0,1,6,21Z" style="fill: #9999992ca9bc;"/>
<path id="primary" d="M18.76,7.2a7,7,0,0,0-13.18-1A5,5,0,0,0,7,16H17.5a4.49,4.49,0,0,0,1.26-8.8Z" style="fill: #999999;"/>
</g>
</svg>